<svg width="30" height="30" viewBox="0 0 30 30" fill="none" xmlns="http://www.w3.org/2000/svg">
<g clip-path="url(#clip0_195_415)">
<path d="M29.484 12.4104C29.1989 12.4104 28.9678 12.7018 28.9678 13.0604C28.9678 14.0552 28.9678 15.9461 28.9678 16.9404C28.9678 17.299 29.199 17.5898 29.4846 17.5898C29.7697 17.5898 29.9999 17.2989 29.9999 16.9404C29.9999 15.9467 29.9999 14.0558 29.9999 13.0598C29.9999 12.7018 29.7691 12.4104 29.484 12.4104Z" fill="black"/>
<path d="M0.516916 12.4104C0.23182 12.4104 0 12.7018 0 13.0604C0 14.0564 0 15.9444 0.000599948 16.9392C0.000599948 17.2978 0.23182 17.5886 0.516916 17.5898C0.802071 17.5898 1.03269 17.299 1.03269 16.9404C1.03269 15.9462 1.03269 14.0558 1.03329 13.0598C1.03323 12.7018 0.802071 12.4104 0.516916 12.4104Z" fill="black"/>
<path d="M6.87369 6.5282C5.92253 6.5282 5.15088 7.40076 5.15088 8.47647C5.15088 11.7374 5.15148 18.2638 5.15208 21.5236C5.15208 22.5993 5.92253 23.4718 6.87375 23.4718C7.82497 23.4718 8.59656 22.5987 8.59656 21.5236C8.59656 20.2448 8.59656 18.4612 8.59656 16.5713C9.58966 16.5713 18.4785 16.5713 21.1279 16.5713C21.1279 18.4618 21.1279 20.2448 21.1279 21.5242C21.1279 22.5993 21.8995 23.4718 22.8508 23.4718C23.802 23.4718 24.5725 22.5987 24.5725 21.5236C24.5725 18.2626 24.5725 11.7362 24.5725 8.47647C24.5725 7.40022 23.8019 6.5282 22.8508 6.5282C21.8996 6.5282 21.1279 7.39962 21.1279 8.47647C21.1279 9.75526 21.1279 11.5383 21.1279 13.4286C18.4775 13.4286 9.58966 13.4286 8.59656 13.4286C8.59656 11.5383 8.59656 9.7552 8.59656 8.47587C8.59656 7.39968 7.82551 6.5282 6.87369 6.5282Z" fill="black"/>
<path d="M26.8537 9.13049C26.7974 9.13049 26.7418 9.13049 26.6851 9.13049C25.9684 9.13049 25.3867 9.71052 25.3867 10.4282C25.3867 12.6868 25.3867 17.3132 25.3867 19.5718C25.3867 20.2889 25.9684 20.8706 26.6855 20.8706C26.7418 20.8706 26.7986 20.8706 26.8542 20.8706C27.5713 20.8706 28.153 20.2906 28.153 19.5729C28.153 17.3149 28.153 12.6879 28.1525 10.4293C28.1531 9.71166 27.5708 9.13049 26.8537 9.13049Z" fill="black"/>
<path d="M3.12671 9.13049C3.0705 9.13049 3.01368 9.13049 2.95747 9.13049C2.24035 9.13049 1.65918 9.71052 1.65918 10.4282C1.65918 12.6868 1.65918 17.3132 1.65918 19.5718C1.65918 20.2895 2.24035 20.8706 2.95747 20.8706C3.01368 20.8706 3.0705 20.8706 3.12611 20.8706C3.84323 20.8706 4.4244 20.2906 4.4244 19.5729C4.4244 17.3149 4.4244 12.6879 4.4244 10.4293C4.425 9.71166 3.84383 9.13049 3.12671 9.13049Z" fill="black"/>
</g>
<defs>
<clipPath id="clip0_195_415">
<rect width="30" height="30" fill="white"/>
</clipPath>
</defs>
</svg>
