<svg width="28" height="28" viewBox="0 0 28 28" fill="none" xmlns="http://www.w3.org/2000/svg">
<g clip-path="url(#clip0_81_2477)">
<path d="M11.8833 0.196289C5.72122 0.196289 0.726074 5.19144 0.726074 11.3535C0.726074 15.6826 3.19113 19.4356 6.79442 21.2854L21.8151 6.26463C19.9654 2.66135 16.2123 0.196289 11.8833 0.196289Z" fill="#DC774E"/>
<path d="M21.8149 6.26464C25.4182 8.11489 27.8833 11.8674 27.8833 16.1964C27.8833 22.3585 22.8881 27.3537 16.7261 27.3537C12.397 27.3537 8.64452 24.8886 6.79422 21.2853C6.01111 19.7597 5.56885 18.0294 5.56885 16.1964C5.56885 10.0344 10.564 5.03922 16.7261 5.03922C18.5591 5.03927 20.2894 5.48153 21.8149 6.26464Z" fill="#F7CD95"/>
<path d="M5.89254 7.19631C6.35868 7.66308 6.35868 8.41871 5.89254 8.88484C5.42641 9.35097 4.67078 9.35097 4.2046 8.88484C3.73841 8.41871 3.73847 7.66308 4.2046 7.19631C4.67073 6.73018 5.42636 6.73018 5.89254 7.19631Z" fill="#8E4238"/>
<path d="M20.8197 19.8916C21.4787 19.8916 22.0134 20.4258 22.0134 21.0853C22.0134 21.7449 21.4787 22.279 20.8197 22.279C20.1602 22.279 19.626 21.7449 19.626 21.0853C19.626 20.4258 20.1602 19.8916 20.8197 19.8916Z" fill="#8E4238"/>
<path d="M18.804 9.48828C20.1224 9.48828 21.1914 10.5573 21.1914 11.8757C21.1914 13.1942 20.1224 14.2632 18.804 14.2632C17.4849 14.2632 16.4165 13.1942 16.4165 11.8757C16.4165 10.5573 17.4849 9.48828 18.804 9.48828Z" fill="#8E4238"/>
<path d="M9.88755 12.4308C10.5471 12.4308 11.0813 12.965 11.0813 13.6246C11.0813 14.2841 10.5471 14.8183 9.88755 14.8183C9.22803 14.8183 8.69385 14.2841 8.69385 13.6246C8.69385 12.965 9.22803 12.4308 9.88755 12.4308Z" fill="#B75548"/>
<path d="M13.4426 22.904C14.7612 22.904 15.8301 21.8351 15.8301 20.5166C15.8301 19.198 14.7612 18.1291 13.4426 18.1291C12.1241 18.1291 11.0552 19.198 11.0552 20.5166C11.0552 21.8351 12.1241 22.904 13.4426 22.904Z" fill="#8E4238"/>
<path d="M23.5653 15.6354C24.2242 15.6354 24.759 16.1696 24.759 16.8291C24.759 17.4886 24.2242 18.0229 23.5653 18.0229C22.9058 18.0229 22.3716 17.4887 22.3716 16.8291C22.3716 16.1695 22.9058 15.6354 23.5653 15.6354Z" fill="#B75548"/>
<path d="M11.6708 3.89986C11.9181 3.89986 12.1185 3.69943 12.1185 3.45219C12.1185 3.20495 11.9181 3.00452 11.6708 3.00452C11.4236 3.00452 11.2231 3.20495 11.2231 3.45219C11.2231 3.69943 11.4236 3.89986 11.6708 3.89986Z" fill="#700D00"/>
<path d="M14.0361 12.3234C14.2833 12.3234 14.4837 12.123 14.4837 11.8757C14.4837 11.6285 14.2833 11.4281 14.0361 11.4281C13.7888 11.4281 13.5884 11.6285 13.5884 11.8757C13.5884 12.123 13.7888 12.3234 14.0361 12.3234Z" fill="#700D00"/>
<path d="M17.7592 17.9531C18.0064 17.9531 18.2069 17.7526 18.2069 17.5054C18.2069 17.2581 18.0064 17.0577 17.7592 17.0577C17.512 17.0577 17.3115 17.2581 17.3115 17.5054C17.3115 17.7526 17.512 17.9531 17.7592 17.9531Z" fill="#700D00"/>
</g>
<defs>
<clipPath id="clip0_81_2477">
<rect width="27.1574" height="27.1574" fill="white" transform="translate(0.726074 0.196289)"/>
</clipPath>
</defs>
</svg>
