<svg width="28" height="28" viewBox="0 0 28 28" fill="none" xmlns="http://www.w3.org/2000/svg">
<path d="M5.05413 5.69016L2.25989 9.14211C2.25989 9.14211 1.42183 10.1923 1.63824 11.2298C1.88224 12.3883 2.49752 12.4583 2.49752 12.4583C2.49752 12.4583 2.45721 13.3579 2.98763 14.1238C3.51804 14.8897 3.77052 15.2525 5.697 15.836C7.62347 16.4194 11.0988 17.075 11.0988 17.075L11.9941 20.5503C11.9941 20.5503 12.2339 21.4096 13.3011 21.8573C14.3683 22.3049 15.2021 22.1883 15.2021 22.1883C15.2021 22.1883 15.6434 23.4082 17.1095 23.7477C18.3782 24.0426 19.3902 23.404 19.3902 23.404C19.3902 23.404 20.4574 24.0574 21.8323 23.7477C23.4278 23.3891 23.7927 22.4068 23.7927 22.4068C23.7927 22.4068 25.0997 22.2689 25.9589 21.0298C26.8182 19.7908 26.1987 18.382 26.1987 18.382C26.1987 18.382 26.9604 17.2533 26.7482 15.9739C26.5572 14.8155 26.0968 14.4208 26.0968 14.4208L23.3429 12.4986C23.3429 12.4986 24.512 12.017 24.9257 9.95259C25.3394 7.88821 24.3062 6.85708 24.3062 6.85708C24.3062 6.85708 24.7114 5.69228 24.0303 4.65479C23.3769 3.6576 22.4476 4.13922 21.9999 3.69155C21.4483 3.13991 18.3188 2.7962 18.3188 2.7962L14.7098 5.79412L5.05413 5.69016Z" fill="#2F7C31"/>
<path d="M6.38224 2.2276C6.38224 2.2276 7.46217 1.04371 8.91127 1.14767C10.3604 1.25163 10.6235 2.12576 10.6235 2.12576C10.6235 2.12576 11.5124 1.97936 12.0704 2.2276C13.2119 2.7368 13.091 3.32875 13.4368 3.28843C13.7826 3.24812 13.7826 1.77993 15.3951 1.26861C17.0076 0.757284 17.8838 1.53381 18.2296 1.5126C18.5755 1.49138 19.004 1.0819 20.2282 1.47229C21.3294 1.82448 21.5649 2.55434 21.6158 2.77711C21.6752 3.04656 21.6752 3.34784 22.002 3.69367C22.3287 4.03951 21.9786 5.29341 21.5097 5.80261C21.0408 6.31181 20.1264 6.36485 20.1264 6.36485C20.1264 6.36485 20.3407 8.12584 18.8767 9.09332C17.8477 9.77226 16.7402 9.50492 16.7402 9.50492C16.7402 9.50492 15.5585 10.5276 14.2324 10.099C12.9064 9.67041 12.7642 9.1209 13.4983 8.50774C14.2324 7.8967 14.5592 6.71281 13.6829 6.48791C12.8067 6.26301 11.9092 6.69159 11.6037 7.65059C11.2981 8.60958 11.2769 9.44552 10.2776 10.1584C9.27832 10.8713 8.54422 10.6485 7.54491 10.9137C6.54561 11.1789 5.87304 12.0361 5.0371 12.0552C4.20116 12.0764 3.54769 11.4632 3.11911 11.5248C2.69053 11.5863 1.81429 11.79 1.81429 11.79C1.81429 11.79 1.42602 11.0559 1.67213 10.1584C1.91825 9.26093 2.26196 9.14 2.26196 9.14C2.26196 9.14 0.273954 7.21777 2.10071 4.28562C3.75137 1.63565 6.38224 2.2276 6.38224 2.2276Z" fill="#709921"/>
<path d="M17.3532 15.9718C17.3532 15.9718 18.1276 15.645 18.6389 14.7688C19.1481 13.8925 19.4134 13.2391 20.2302 12.8105C21.0449 12.3819 21.9636 12.4222 23.1475 12.4838C24.3314 12.5453 24.6305 12.906 24.9212 13.1966C25.4919 13.7674 26.1051 14.4208 26.1051 14.4208C26.1051 14.4208 25.1058 14.5015 24.5754 15.3183C24.045 16.1352 23.7182 17.2554 23.7182 17.2554C23.7182 17.2554 23.0053 17.5206 22.25 17.928C21.4947 18.3353 19.8228 19.4174 18.7217 19.131C17.6205 18.8445 17.0498 17.58 17.0498 17.4379C17.0477 17.2978 17.3532 15.9718 17.3532 15.9718Z" fill="#709921"/>
<path d="M7.93926 17.7964C7.88834 17.9492 2.57568 23.9259 2.57568 23.9259C2.57568 23.9259 3.21431 24.8955 3.77655 25.3559C4.33879 25.8163 5.25111 26.5037 5.83032 26.6607C6.45834 26.8305 6.94208 27.0172 7.50432 26.2767C8.06656 25.5363 8.49938 24.5667 10.0333 22.9309C11.5673 21.295 12.6642 20.3 13.8884 19.7123C15.1126 19.1246 16.8757 18.7172 17.3361 18.6663C17.7965 18.6154 18.3821 18.5645 18.3821 18.5645C18.3821 18.5645 18.7279 17.8664 18.6113 17.3127C18.4818 16.6953 17.6162 16.4195 17.6162 16.4195L13.2243 17.0581L13.7441 16.8841C13.7441 16.8841 13.5383 16.5807 13.812 16.1882C14.0497 15.8466 15.1402 14.5269 15.4988 14.0411C15.8573 13.5552 16.5851 12.6132 16.5702 12.4604C16.5448 12.1804 15.8807 11.8218 15.677 11.6945C15.4733 11.5672 15.0384 11.389 15.0384 11.389L10.3389 16.2624L10.0843 16.0333C10.0843 16.0333 9.77875 16.0185 9.59841 15.5474C9.47111 15.2165 9.42019 14.2193 9.31835 13.3515C9.2547 12.8084 9.21651 12.1761 9.21651 12.1761C9.21651 12.1761 8.47604 11.8451 7.99018 11.8961C7.50432 11.947 6.9442 12.4838 6.9442 12.4838L7.93926 17.7964Z" fill="#9FB525"/>
<path d="M6.15086 12.6365C6.07448 12.8402 6.20178 13.761 6.20178 14.9852C6.20178 16.2094 6.13177 17.3445 5.5377 18.0744C4.77178 19.0185 3.46908 20.3467 2.47401 21.2399C2.04331 21.626 1.75901 21.7767 1.73355 21.8785C1.70809 21.9804 1.91814 22.9097 2.11757 23.3085C2.47826 24.0299 3.14022 24.6855 3.14022 24.6855C3.14022 24.6855 5.79442 21.7003 6.91891 20.5504C8.04339 19.4004 8.65443 18.6345 8.91115 18.8912C9.16576 19.1458 8.31921 20.1409 7.71029 20.8325C6.79161 21.8785 4.2159 25.6954 4.2159 25.6954C4.2159 25.6954 4.35805 25.8439 4.6466 26.0412C4.9012 26.2173 5.10064 26.3086 5.10064 26.3086C5.10064 26.3086 6.45851 24.0999 8.34891 22.1077C10.2393 20.1154 11.3108 19.1967 12.6135 18.7618C13.9162 18.3268 18.6135 17.3063 18.6135 17.3063C18.6135 17.3063 18.4099 16.5913 18.2826 16.2858C18.1553 15.9803 17.8731 15.6217 17.8731 15.6217C17.8731 15.6217 15.5244 16.2349 15.1149 16.3622C14.7054 16.4895 12.3822 16.7717 12.2804 16.5149C12.1785 16.2603 13.8377 14.1917 14.3235 13.5531C14.8094 12.9145 15.6878 11.6881 15.6878 11.6881C15.6878 11.6881 15.168 11.3317 14.5293 11.1789C13.8907 11.0262 13.6616 11.1535 13.6616 11.1535C13.6616 11.1535 12.1043 13.2476 11.6439 13.8607C11.1835 14.4739 10.2902 15.8021 9.4734 16.0312C8.65656 16.2603 8.45288 16.0567 8.34891 15.4435C8.24707 14.8303 7.99035 11.8939 7.99035 11.8939C7.99035 11.8939 7.17351 11.9449 6.86587 12.0976C6.55823 12.2504 6.22724 12.4329 6.15086 12.6365Z" fill="#B7D118"/>
<path d="M22.2859 16.3749C22.2859 16.3749 22.7611 15.5156 23.1706 15.8742C23.5822 16.2327 22.7993 17.3636 22.6317 17.4018C22.4641 17.44 21.1572 17.005 21.3481 16.5171C21.5433 16.0291 22.2859 16.3749 22.2859 16.3749Z" fill="#2F7C31"/>
<path d="M9.94247 7.75244C10.4304 7.73547 11.4552 6.73404 11.0224 6.21423C10.6723 5.79414 9.94247 6.60886 9.94247 6.60886C9.94247 6.60886 9.17018 5.81324 8.86466 6.19726C8.42972 6.75314 9.5839 7.76517 9.94247 7.75244Z" fill="#2F7C31"/>
<path d="M7.22209 8.75388C7.22209 8.75388 7.64643 7.88188 8.13229 8.25317C8.62027 8.62446 7.77373 9.88261 7.517 9.95899C7.26028 10.0354 5.8812 9.24611 6.24613 8.68811C6.54316 8.24044 7.22209 8.75388 7.22209 8.75388Z" fill="#2F7C31"/>
<path d="M3.48836 7.95824C3.64112 7.9837 4.73378 7.36841 4.42401 6.82951C4.11425 6.29061 3.48836 6.97166 3.48836 6.97166C3.48836 6.97166 2.89641 6.44761 2.64181 6.76586C2.23233 7.2793 3.25922 7.92005 3.48836 7.95824Z" fill="#2F7C31"/>
<path d="M3.68108 9.72987C3.68108 9.72987 4.09268 8.88332 4.52762 9.2037C4.96469 9.52407 4.20725 10.8077 4.09056 10.8586C3.97599 10.9095 2.43354 10.4746 2.76876 9.85717C3.00214 9.43496 3.68108 9.72987 3.68108 9.72987Z" fill="#2F7C31"/>
<path d="M17.2471 8.77512C17.5844 8.62872 18.1488 7.48726 17.6205 7.256C17.1941 7.06929 16.9713 7.7652 16.9713 7.7652C16.9713 7.7652 16.4982 7.34935 16.1735 7.69094C15.6749 8.215 17.0434 8.86423 17.2471 8.77512Z" fill="#2F7C31"/>
<path d="M19.6445 4.33444C19.6445 4.33444 19.6721 3.83797 20.054 3.86343C20.4741 3.89314 20.4189 4.92851 20.0986 5.12371C19.7782 5.3189 18.7216 4.75878 18.9613 4.36839C19.1141 4.12016 19.6721 4.28989 19.6445 4.33444Z" fill="#2F7C31"/>
</svg>
