<svg width="32" height="33" viewBox="0 0 32 33" fill="none" xmlns="http://www.w3.org/2000/svg">
<g clip-path="url(#clip0_81_2509)">
<path d="M6.9409 18.4754L6.94128 18.4752C4.95083 16.5807 5.27299 15.523 5.27299 13.1424C0.124607 16.9038 0.740214 21.4145 0.740214 21.4145L0.740591 21.4143C0.849858 23.3615 2.46299 24.9068 4.43743 24.9068C6.48265 24.9068 8.14058 23.2489 8.14058 21.2037C8.14058 20.1239 7.6782 19.1522 6.9409 18.4754Z" fill="#F59D00"/>
<path d="M17.6611 20.2762L17.6614 20.2761C16.2283 18.9121 16.4602 18.1505 16.4602 16.4366C12.7534 19.1447 13.1967 22.3924 13.1967 22.3924L13.197 22.3923C13.2757 23.7943 14.437 24.907 15.8587 24.907C17.3313 24.907 18.525 23.7133 18.525 22.2407C18.525 21.4631 18.192 20.7636 17.6611 20.2762Z" fill="#F59D00"/>
<path d="M19.4697 15.6455L19.4703 15.6452C16.604 12.9173 17.0679 11.3941 17.0679 7.96609C9.65427 13.3824 10.5408 19.8779 10.5408 19.8779L10.5414 19.8776C10.6961 22.6347 12.945 24.8307 15.7232 24.9033C14.364 24.8353 13.2732 23.7493 13.197 22.3922L13.1967 22.3923C13.1967 22.3923 12.7534 19.1445 16.4602 16.4364C16.4602 18.1504 16.2283 18.912 17.6614 20.2759L17.6611 20.276C18.192 20.7633 18.5249 21.4629 18.5249 22.2404C18.5249 23.7119 17.3328 24.9049 15.8616 24.9065C15.8627 24.9065 15.8637 24.9066 15.8647 24.9066C18.8099 24.9066 21.1973 22.5191 21.1973 19.5741C21.1974 18.0194 20.5314 16.6203 19.4697 15.6455Z" fill="#FFE49C"/>
<path d="M29.7881 18.4754L29.7885 18.4752C27.798 16.5807 28.1201 15.523 28.1201 13.1424C22.9717 16.9037 23.5874 21.4145 23.5874 21.4145L23.5878 21.4143C23.697 23.3615 25.3102 24.9068 27.2846 24.9068C29.3298 24.9068 30.9878 23.2489 30.9878 21.2037C30.9879 20.1239 30.5254 19.1522 29.7881 18.4754Z" fill="#F59D00"/>
<path d="M7.43738 17.9728C7.43437 17.9698 7.43127 17.9669 7.42816 17.9639C5.68242 16.3024 5.97898 15.5737 5.97898 13.1424C5.97898 12.5668 5.32328 12.2319 4.85665 12.5725C-0.428479 16.4337 -0.0125842 21.0617 0.0378615 21.4851C0.184211 23.8023 2.11075 25.6127 4.43765 25.6127C6.86874 25.6127 8.84666 23.6348 8.84666 21.2037C8.84666 19.9812 8.33327 18.8052 7.43738 17.9728ZM4.43765 24.2011C2.8488 24.2011 1.53448 22.9597 1.44554 21.3749C1.29863 18.7627 2.60871 16.4153 4.54795 14.6435C4.53647 18.907 7.43494 18.4796 7.43494 21.2038C7.43494 22.8564 6.09041 24.2011 4.43765 24.2011Z" fill="#414042"/>
<path d="M19.9709 15.1475C19.9663 15.143 19.9617 15.1384 19.9572 15.134C17.3368 12.6401 17.774 11.4558 17.774 7.9662C17.774 7.39059 17.1183 7.05564 16.6517 7.39624C12.6653 10.3086 11.0243 13.5447 10.3495 15.7464C9.64349 18.0504 9.81224 19.7311 9.83878 19.9513C9.93129 21.4509 10.5761 22.8533 11.6566 23.9035C12.7422 24.9585 14.1713 25.563 15.6828 25.6081C18.8655 25.7717 21.9034 23.12 21.9034 19.5745C21.9035 17.8991 21.1994 16.2875 19.9709 15.1475ZM17.184 20.7962C18.4867 21.992 17.6549 24.1782 15.8829 24.1997C15.875 24.1998 15.8673 24.201 15.8594 24.201C15.8592 24.201 15.8589 24.201 15.8588 24.201C14.9526 24.201 13.9333 23.5553 13.8859 22.1394C13.8694 21.605 13.9621 19.7948 15.7504 17.9737C15.8018 18.9539 16.1162 19.8055 17.184 20.7962ZM19.1858 22.7929C19.3703 21.6798 18.9826 20.5415 18.1555 19.7717C18.1532 19.7695 18.1507 19.7671 18.1484 19.7649C16.9602 18.6341 17.1664 18.1797 17.1664 16.4366C17.1664 16.1708 17.0171 15.9276 16.7801 15.8072C16.3457 15.5866 16.042 15.8596 15.7258 16.1081C13.1396 18.1393 12.2217 20.8007 12.5277 22.7659C11.7878 21.9939 11.3099 20.9687 11.2465 19.8383C11.1787 18.6561 11.2723 17.5216 11.7224 16.0862C12.273 14.3305 13.5199 11.8351 16.3431 9.43543C16.3013 11.7621 16.3035 13.6851 18.9927 16.1657C19.9455 17.0403 20.492 18.2828 20.492 19.5745C20.4918 20.8239 19.9937 21.9595 19.1858 22.7929Z" fill="#414042"/>
<path d="M30.2844 17.9728C30.2813 17.9698 30.2782 17.9669 30.2752 17.964C28.5295 16.3024 28.8261 15.5738 28.8261 13.1425C28.8261 12.5657 28.1697 12.2327 27.7038 12.5726C22.4188 16.4338 22.8346 21.0618 22.885 21.4852C23.0314 23.8024 24.9579 25.6128 27.2848 25.6128C31.2876 25.6128 33.2047 20.6853 30.2844 17.9728ZM27.2848 24.2011C25.696 24.2011 24.3816 22.9597 24.2927 21.3749C24.1459 18.7627 25.4561 16.4153 27.3951 14.6436C27.3836 18.9073 30.2822 18.4796 30.2822 21.2039C30.2822 22.8564 28.9376 24.2011 27.2848 24.2011Z" fill="#414042"/>
</g>
<defs>
<clipPath id="clip0_81_2509">
<rect width="31.6836" height="31.6836" fill="white" transform="translate(0.0102539 0.595581)"/>
</clipPath>
</defs>
</svg>
