<svg width="22" height="23" viewBox="0 0 22 23" fill="none" xmlns="http://www.w3.org/2000/svg">
<path d="M17.9001 19.9798L12.1971 14.2767C11.7445 14.6388 11.2239 14.9255 10.6355 15.1367C10.0471 15.3479 9.42099 15.4536 8.75714 15.4536C7.11261 15.4536 5.7208 14.884 4.5817 13.7449C3.4426 12.6058 2.87305 11.214 2.87305 9.56946C2.87305 7.92493 3.4426 6.53311 4.5817 5.39401C5.7208 4.25491 7.11261 3.68536 8.75714 3.68536C10.4017 3.68536 11.7935 4.25491 12.9326 5.39401C14.0717 6.53311 14.6412 7.92493 14.6412 9.56946C14.6412 10.2333 14.5356 10.8594 14.3244 11.4478C14.1132 12.0363 13.8265 12.5568 13.4644 13.0094L19.1675 18.7124L17.9001 19.9798ZM8.75714 13.6431C9.8887 13.6431 10.8505 13.247 11.6426 12.4549C12.4347 11.6628 12.8307 10.701 12.8307 9.56946C12.8307 8.4379 12.4347 7.47608 11.6426 6.68399C10.8505 5.8919 9.8887 5.49585 8.75714 5.49585C7.62559 5.49585 6.66376 5.8919 5.87167 6.68399C5.07958 7.47608 4.68354 8.4379 4.68354 9.56946C4.68354 10.701 5.07958 11.6628 5.87167 12.4549C6.66376 13.247 7.62559 13.6431 8.75714 13.6431Z" fill="#1D1B20"/>
</svg>
