<svg width="25" height="29" viewBox="0 0 25 29" fill="none" xmlns="http://www.w3.org/2000/svg">
<g clip-path="url(#clip0_81_2504)">
<path d="M20.6937 14.4063L19.8357 8.9131C19.8098 8.75314 19.7183 8.6114 19.5835 8.52188L18.0564 7.49176L19.4657 5.40246C19.7163 5.03093 19.4707 4.52755 19.0239 4.49615C18.8163 4.48179 18.617 4.57902 18.5006 4.75151L17.0946 6.83598L15.5674 5.80586C15.4336 5.71594 15.2682 5.68582 15.111 5.72266L9.69638 6.98469C9.55325 7.01733 9.4276 7.10317 9.34477 7.22492L0.766896 19.9416C0.587235 20.208 0.657348 20.5698 0.923938 20.7496L11.216 27.692C11.4823 27.8716 11.8443 27.8013 12.024 27.5349L20.6002 14.8207C20.6825 14.6992 20.716 14.5512 20.6937 14.4063ZM15.1264 6.91247L18.7259 9.34051L19.5107 14.3595L12.8954 24.1666L3.56356 17.872L10.1788 8.06484L15.1264 6.91247ZM2.05499 20.1084L2.91261 18.837L12.2421 25.13L11.3828 26.4039L2.05499 20.1084Z" fill="#007AFF"/>
<path d="M10.753 13.9738C11.8674 14.7255 13.3773 13.9888 13.4712 12.648C13.5651 11.3073 12.1721 10.3676 10.9641 10.9569C10.6885 11.0911 10.4534 11.2955 10.2819 11.5498C9.74273 12.3491 9.95347 13.4345 10.753 13.9738ZM12.0647 12.0292C12.436 12.2797 12.3972 12.8383 11.9943 13.0349C11.5916 13.2312 11.1274 12.9181 11.1586 12.4712C11.1658 12.3689 11.1996 12.271 11.2567 12.1863C11.4365 11.9197 11.7981 11.8494 12.0647 12.0292Z" fill="#007AFF"/>
<path d="M10.4098 17.9584C9.65829 19.0725 10.3948 20.5827 11.7355 20.6766C13.0765 20.7702 14.016 19.3775 13.4269 18.1692C13.2924 17.8939 13.0878 17.6586 12.8338 17.4873C12.0342 16.9479 10.9491 17.1589 10.4098 17.9584ZM12.3519 19.2684C12.1015 19.6397 11.5427 19.6005 11.3463 19.1981C11.15 18.7954 11.4633 18.3309 11.9102 18.3621C12.012 18.3694 12.1102 18.4033 12.1949 18.4604C12.4612 18.6401 12.5318 19.0018 12.3519 19.2684Z" fill="#007AFF"/>
<path d="M7.94925 16.7512C7.988 16.8827 8.071 16.997 8.18398 17.0746C8.32689 17.1703 8.50496 17.1977 8.67028 17.1499L15.7558 15.1229C16.1904 14.9954 16.3242 14.4458 15.9968 14.1333C15.8449 13.988 15.6271 13.9352 15.4254 13.9943L8.33579 16.0221C8.0272 16.1158 7.8539 16.443 7.94925 16.7512Z" fill="#007AFF"/>
</g>
<defs>
<clipPath id="clip0_81_2504">
<rect width="13.5787" height="23.6749" fill="white" transform="translate(13.6807 0.796967) rotate(34.0011)"/>
</clipPath>
</defs>
</svg>
