<svg width="26" height="29" viewBox="0 0 26 29" fill="none" xmlns="http://www.w3.org/2000/svg">
<path d="M7.96453 25.0086C8.07633 25.0899 8.15143 25.2121 8.17343 25.3485C8.19543 25.485 8.16255 25.6246 8.08196 25.7368L6.95372 27.2956C6.87205 27.4066 6.74985 27.4808 6.61372 27.5021C6.4776 27.5234 6.33856 27.4901 6.22689 27.4093L2.93806 25.0289C2.82687 24.9478 2.75208 24.8261 2.7298 24.6903C2.70753 24.5545 2.73957 24.4153 2.81902 24.3029L3.94727 22.7442C4.02902 22.6329 4.15133 22.5583 4.28768 22.5366C4.42403 22.5149 4.56343 22.5478 4.6757 22.6282L7.96453 25.0086Z" fill="#163844"/>
<path d="M3.94714 22.7439L3.2251 23.7415L7.35979 26.7342L8.08265 25.7355C8.16324 25.6232 8.19612 25.4836 8.17412 25.3472C8.15212 25.2107 8.07702 25.0885 7.96522 25.0073L4.67639 22.6268C4.56393 22.5463 4.42424 22.5135 4.28768 22.5354C4.15113 22.5573 4.02875 22.6323 3.94714 22.7439Z" fill="black"/>
<path d="M11.1401 25.3735C11.3055 25.4935 11.4167 25.6741 11.4494 25.8759C11.4822 26.0776 11.4338 26.2841 11.3148 26.4503L10.4796 27.6043C10.3588 27.7695 10.1777 27.8802 9.97567 27.9124C9.77366 27.9446 9.56711 27.8956 9.40102 27.7762L1.59767 22.1281C1.43267 22.0076 1.32197 21.8267 1.28964 21.6249C1.25731 21.4231 1.30597 21.2168 1.42505 21.0507L2.26033 19.8967C2.38085 19.7319 2.56163 19.6214 2.76326 19.5893C2.96489 19.5573 3.17103 19.6062 3.33673 19.7254L11.1401 25.3735Z" fill="#163844"/>
<path d="M2.26016 19.897L1.96094 20.3104L11.0154 26.8641L11.3149 26.4504C11.4338 26.2842 11.4822 26.0777 11.4495 25.876C11.4167 25.6742 11.3055 25.4936 11.1401 25.3736L3.33676 19.7255C3.17101 19.6062 2.9648 19.5573 2.76312 19.5894C2.56144 19.6215 2.38064 19.7321 2.26016 19.897Z" fill="black"/>
<path d="M14.8529 22.9631C15.1033 23.146 15.2712 23.4206 15.32 23.7269C15.3688 24.0331 15.2945 24.3463 15.1134 24.598L13.5242 26.7935C13.3421 27.0452 13.0676 27.2145 12.761 27.2643C12.4543 27.3142 12.1404 27.2405 11.8879 27.0594L1.50587 19.5449C1.25401 19.3618 1.08493 19.0864 1.03567 18.7789C0.986407 18.4715 1.06097 18.157 1.24302 17.9044L2.83215 15.7089C3.01553 15.4579 3.29078 15.2896 3.5978 15.2408C3.90481 15.192 4.21866 15.2667 4.4708 15.4485L14.8529 22.9631Z" fill="#163844"/>
<path d="M18.1842 3.96493C18.0726 3.88319 17.9978 3.76076 17.976 3.62422C17.9542 3.48768 17.9871 3.34803 18.0676 3.2356L19.196 1.67655C19.2778 1.56581 19.4 1.49177 19.5361 1.47048C19.6721 1.44919 19.8111 1.48236 19.9228 1.56281L23.2116 3.94327C23.3234 4.02401 23.3986 4.14568 23.4209 4.2817C23.4432 4.41772 23.4108 4.55705 23.3307 4.66924L22.2022 6.22829C22.1209 6.34033 21.9985 6.41557 21.8618 6.43752C21.7251 6.45947 21.5853 6.42633 21.473 6.34538L18.1842 3.96493Z" fill="#163844"/>
<path d="M22.2022 6.22829L22.9263 5.22793L18.7916 2.23524L18.0676 3.2356C17.9871 3.34803 17.9542 3.48768 17.976 3.62422C17.9978 3.76076 18.0726 3.88319 18.1842 3.96493L21.473 6.34538C21.5853 6.42633 21.7251 6.45947 21.8618 6.43752C21.9985 6.41557 22.1209 6.34033 22.2022 6.22829Z" fill="black"/>
<path d="M15.0093 3.59875C14.844 3.47874 14.7329 3.29812 14.7004 3.09642C14.6679 2.89471 14.7166 2.68834 14.8359 2.52246L15.6722 1.36704C15.7927 1.20224 15.9735 1.09175 16.1751 1.05968C16.3767 1.0276 16.5828 1.07653 16.7486 1.1958L24.5519 6.84386C24.7173 6.96391 24.8285 7.14451 24.8612 7.34625C24.894 7.54798 24.8456 7.75449 24.7267 7.92068L23.8904 9.07611C23.7699 9.24136 23.5888 9.3521 23.3868 9.38409C23.1848 9.41609 22.9783 9.36673 22.8126 9.24681L15.0093 3.59875Z" fill="#163844"/>
<path d="M23.8904 9.07611L24.1896 8.6627L15.1351 2.10905L14.8359 2.52246C14.7166 2.68834 14.6679 2.89471 14.7004 3.09642C14.7329 3.29812 14.844 3.47874 15.0093 3.59875L22.8126 9.24681C22.9783 9.36673 23.1848 9.41609 23.3868 9.38409C23.5888 9.3521 23.7699 9.24136 23.8904 9.07611Z" fill="black"/>
<path d="M11.3008 6.01218C11.0489 5.82909 10.8799 5.55368 10.8306 5.24623C10.7813 4.93877 10.8559 4.62431 11.0379 4.3717L12.6269 2.17645C12.81 1.92538 13.0853 1.75712 13.3923 1.70854C13.6992 1.65995 14.0129 1.735 14.2647 1.91723L24.649 9.43339C24.8999 9.61569 25.0683 9.89003 25.1173 10.1963C25.1663 10.5025 25.0919 10.8157 24.9103 11.0672L23.3214 13.2624C23.1392 13.5141 22.8648 13.6834 22.5581 13.7332C22.2515 13.783 21.9376 13.7094 21.6851 13.5283L11.3008 6.01218Z" fill="#163844"/>
<path d="M15.0109 8.69753L8.18066 18.1341L11.1384 20.2749L17.9686 10.8383L15.0109 8.69753Z" fill="#F4F4F4"/>
</svg>
