<svg width="26" height="26" viewBox="0 0 26 26" fill="none" xmlns="http://www.w3.org/2000/svg">
<g clip-path="url(#clip0_81_2520)">
<path d="M9.14883 25.3621H17.2707C18.1387 25.3621 18.8424 24.6584 18.8424 23.7903V7.21953C18.8424 6.35151 18.1388 5.64786 17.2707 5.64786H9.14883C8.2808 5.64786 7.57715 6.35151 7.57715 7.21953V23.7903C7.57715 24.6584 8.2808 25.3621 9.14883 25.3621Z" fill="#5065A1"/>
<g opacity="0.31">
<path d="M17.2705 5.64786H15.8623C16.7304 5.64786 17.4341 6.35151 17.4341 7.21962V23.7904C17.4341 24.6584 16.7304 25.3622 15.8623 25.3622H17.2705C18.1385 25.3622 18.8422 24.6585 18.8422 23.7904V7.21962C18.8422 6.35151 18.1386 5.64786 17.2705 5.64786Z" fill="#5065A1"/>
</g>
<path d="M13.2098 18.3213C15.5429 18.3213 17.4343 16.4299 17.4343 14.0968C17.4343 11.7637 15.5429 9.87234 13.2098 9.87234C10.8767 9.87234 8.98535 11.7637 8.98535 14.0968C8.98535 16.4299 10.8767 18.3213 13.2098 18.3213Z" fill="#ECF0F1"/>
<path d="M15.9677 10.8982C16.4477 11.5836 16.7303 12.4176 16.7303 13.318C16.7303 15.6511 14.8389 17.5425 12.5058 17.5425C11.4515 17.5425 10.4882 17.1553 9.74805 16.5166C10.512 17.6074 11.7772 18.3213 13.2099 18.3213C15.543 18.3213 17.4344 16.4299 17.4344 14.0968C17.4344 12.818 16.8654 11.6728 15.9677 10.8982Z" fill="#ECF0F1"/>
<path d="M15.3221 11.2805L11.0977 14.0968H12.5058L11.0977 16.9132L15.3221 14.0968H13.914L15.3221 11.2805Z" fill="#3498DB"/>
<path d="M8.98535 5.64786H17.4343V4.0406C17.4343 3.37287 16.893 2.83154 16.2253 2.83154H10.1943C9.52668 2.83154 8.98535 3.37287 8.98535 4.0406V5.64786Z" fill="#3498DB"/>
<g opacity="0.49">
<path d="M16.2252 2.83154H14.9771C15.6448 2.83154 16.1861 3.37287 16.1861 4.0406V5.64786H17.4342V4.0406C17.4342 3.37287 16.8929 2.83154 16.2252 2.83154Z" fill="#3498DB"/>
</g>
<path d="M13.914 1.4234H12.5059V2.83156H13.914V1.4234Z" fill="#5065A1"/>
<path d="M11.8017 1.42339H14.6181C15.0069 1.42339 15.3221 1.10813 15.3221 0.719308C15.3221 0.330485 15.0069 0.0152283 14.6181 0.0152283H11.8017C11.4129 0.0152283 11.0977 0.330485 11.0977 0.719308C11.0977 1.10813 11.4129 1.42339 11.8017 1.42339Z" fill="#3DBCE5"/>
</g>
<defs>
<clipPath id="clip0_81_2520">
<rect width="25.3469" height="25.3469" fill="white" transform="translate(0.536133 0.0152283)"/>
</clipPath>
</defs>
</svg>
