<svg width="18" height="24" viewBox="0 0 18 24" fill="none" xmlns="http://www.w3.org/2000/svg">
<g clip-path="url(#clip0_81_2501)">
<path d="M14.9788 7.54437H14.4628V5.21336H15.0521C16.2344 5.21336 17.1967 4.25154 17.1967 3.06884C17.1967 1.88613 16.2344 0.923859 15.0521 0.923859H2.3013C1.11905 0.923859 0.157227 1.88568 0.157227 3.06838C0.157227 4.25109 1.11905 5.21291 2.3013 5.21291H2.89107V7.54437H2.37508C1.15209 7.54437 0.157227 8.53969 0.157227 9.76267V21.3371C0.157227 22.5601 1.15209 23.555 2.37508 23.555H14.9788C16.2018 23.555 17.1967 22.5601 17.1967 21.3371V9.76267C17.1967 8.53969 16.2018 7.54437 14.9788 7.54437ZM1.06247 3.06838C1.06247 2.38538 1.61829 1.8291 2.3013 1.8291H15.0521C15.7356 1.8291 16.2914 2.38538 16.2914 3.06838C16.2914 3.75139 15.7351 4.30766 15.0521 4.30766H14.0102H3.34369H2.3013C1.61829 4.30812 1.06247 3.75184 1.06247 3.06838ZM3.79631 5.21336H13.5576V7.54482H3.79631V5.21336ZM16.2914 21.3371C16.2914 22.0613 15.7025 22.6497 14.9788 22.6497H2.37508C1.65133 22.6497 1.06247 22.0609 1.06247 21.3371V9.76267C1.06247 9.03848 1.65133 8.44962 2.37508 8.44962H3.34369H14.0102H14.9788C15.703 8.44962 16.2914 9.03848 16.2914 9.76267V21.3371Z" fill="#007AFF"/>
<path d="M12.1412 15.1778L9.98854 13.93L11.0812 11.3048C11.1531 11.1604 11.1898 11.0042 11.1898 10.8417C11.1898 10.2678 10.7236 9.80069 10.1433 9.80069C9.90299 9.80431 9.68121 9.88216 9.5065 10.0216C9.46259 10.056 9.4386 10.0777 9.43181 10.0854L5.01829 14.2635C4.78112 14.4876 4.66162 14.8157 4.69919 15.1403C4.73676 15.4639 4.92731 15.7549 5.21111 15.9215L7.36423 17.1698L6.24399 19.8575C6.0548 20.3097 6.21005 20.8388 6.61514 21.1172C6.78986 21.2367 6.99354 21.2991 7.20446 21.2991C7.47151 21.2991 7.72588 21.1977 7.92051 21.0144L12.3354 16.834C12.5712 16.6095 12.6902 16.2827 12.6536 15.9568C12.6151 15.6327 12.4236 15.3417 12.1412 15.1778ZM11.7126 16.1768L7.29906 20.3563C7.23162 20.4197 7.1859 20.4088 7.12751 20.3694C7.07546 20.3337 7.05555 20.2653 7.08044 20.206L8.35367 17.1513C8.44102 16.9413 8.35955 16.6996 8.16311 16.5855L5.66826 15.1389C5.63069 15.1167 5.60489 15.0787 5.60037 15.0362C5.59539 14.9927 5.61032 14.9511 5.642 14.9217L10.0691 10.7322C10.0827 10.7213 10.1071 10.7064 10.1519 10.7055C10.2262 10.7055 10.2864 10.7661 10.2864 10.8413C10.2864 10.8625 10.2818 10.882 10.2601 10.9277L9.00182 13.9481C8.91447 14.1581 8.99594 14.3998 9.19283 14.5138L11.689 15.9604C11.7262 15.9822 11.752 16.0206 11.756 16.0605C11.7597 16.1039 11.7434 16.1478 11.7126 16.1768Z" fill="#007AFF"/>
</g>
<defs>
<clipPath id="clip0_81_2501">
<rect width="17.0394" height="22.6311" fill="white" transform="translate(0.157227 0.923859)"/>
</clipPath>
</defs>
</svg>
