<svg width="18" height="18" viewBox="0 0 18 18" fill="none" xmlns="http://www.w3.org/2000/svg">
<path d="M9.27571 2.13965C5.34401 2.13965 2.14014 5.34352 2.14014 9.27522C2.14014 13.2069 5.34401 16.4108 9.27571 16.4108C13.2074 16.4108 16.4113 13.2069 16.4113 9.27522C16.4113 5.34352 13.2074 2.13965 9.27571 2.13965ZM12.6865 7.63404L8.64065 11.6799C8.54075 11.7798 8.40517 11.8369 8.26246 11.8369C8.11975 11.8369 7.98417 11.7798 7.88428 11.6799L5.86491 9.66055C5.65798 9.45361 5.65798 9.11111 5.86491 8.90417C6.07184 8.69724 6.41435 8.69724 6.62128 8.90417L8.26246 10.5454L11.9301 6.87767C12.1371 6.67074 12.4796 6.67074 12.6865 6.87767C12.8934 7.0846 12.8934 7.41997 12.6865 7.63404Z" fill="#044AFF"/>
</svg>
