<svg width="33" height="32" viewBox="0 0 33 32" fill="none" xmlns="http://www.w3.org/2000/svg">
<g clip-path="url(#clip0_134_915)">
<path d="M2.28613 1.57385H7.52116L11.0286 19.236C11.1483 19.8433 11.4761 20.3888 11.9546 20.777C12.4332 21.1653 13.0319 21.3715 13.6461 21.3597H26.3672C26.9814 21.3715 27.5802 21.1653 28.0587 20.777C28.5373 20.3888 28.8651 19.8433 28.9847 19.236L31.0788 8.16912H8.82991M14.0649 27.9549C14.0649 28.6834 13.479 29.274 12.7562 29.274C12.0334 29.274 11.4474 28.6834 11.4474 27.9549C11.4474 27.2264 12.0334 26.6359 12.7562 26.6359C13.479 26.6359 14.0649 27.2264 14.0649 27.9549ZM28.4612 27.9549C28.4612 28.6834 27.8753 29.274 27.1525 29.274C26.4297 29.274 25.8437 28.6834 25.8437 27.9549C25.8437 27.2264 26.4297 26.6359 27.1525 26.6359C27.8753 26.6359 28.4612 27.2264 28.4612 27.9549Z" stroke="#F3F3F3" stroke-width="4" stroke-linecap="round" stroke-linejoin="round"/>
</g>
<defs>
<clipPath id="clip0_134_915">
<rect width="31.4101" height="31.6573" fill="white" transform="translate(0.977539 0.254799)"/>
</clipPath>
</defs>
</svg>
