<svg width="20" height="20" viewBox="0 0 20 20" fill="none" xmlns="http://www.w3.org/2000/svg">
    <g clip-path="url(#clip0_81_3141)">
        <path d="M16.667 9.99999V18.3333H3.33366V9.99999M10.0003 18.3333V5.83332M10.0003 5.83332H6.25033C5.69779 5.83332 5.16789 5.61383 4.77719 5.22313C4.38649 4.83243 4.16699 4.30252 4.16699 3.74999C4.16699 3.19746 4.38649 2.66755 4.77719 2.27685C5.16789 1.88615 5.69779 1.66666 6.25033 1.66666C9.16699 1.66666 10.0003 5.83332 10.0003 5.83332ZM10.0003 5.83332H13.7503C14.3029 5.83332 14.8328 5.61383 15.2235 5.22313C15.6142 4.83243 15.8337 4.30252 15.8337 3.74999C15.8337 3.19746 15.6142 2.66755 15.2235 2.27685C14.8328 1.88615 14.3029 1.66666 13.7503 1.66666C10.8337 1.66666 10.0003 5.83332 10.0003 5.83332ZM1.66699 5.83332H18.3337V9.99999H1.66699V5.83332Z" stroke="#F3F3F3" stroke-width="2" stroke-linecap="round" stroke-linejoin="round"/>
    </g>
    <defs>
        <clipPath id="clip0_81_3141">
            <rect width="20" height="20" fill="white"/>
        </clipPath>
    </defs>
</svg>
