<svg width="24" height="24" viewBox="0 0 24 24" fill="none" xmlns="http://www.w3.org/2000/svg">
<path d="M14.6769 5.20833C15.6943 5.40684 16.6294 5.90443 17.3624 6.63743C18.0954 7.37043 18.593 8.30548 18.7915 9.32292M14.6769 1.04167C16.7907 1.2765 18.7619 2.2231 20.2667 3.72605C21.7716 5.229 22.7207 7.19897 22.9582 9.3125M21.9165 17.625V20.75C21.9177 21.0401 21.8582 21.3273 21.742 21.5931C21.6258 21.8589 21.4553 22.0975 21.2416 22.2936C21.0278 22.4897 20.7754 22.639 20.5006 22.732C20.2258 22.8249 19.9346 22.8594 19.6457 22.8333C16.4403 22.485 13.3613 21.3897 10.6561 19.6354C8.13923 18.0361 6.00539 15.9023 4.40608 13.3854C2.64564 10.6679 1.55008 7.57395 1.20816 4.35417C1.18213 4.06611 1.21636 3.77579 1.30868 3.50169C1.401 3.22759 1.54938 2.97572 1.74438 2.7621C1.93937 2.54849 2.17671 2.37782 2.44128 2.26096C2.70585 2.1441 2.99185 2.08361 3.28108 2.08333H6.40608C6.91161 2.07836 7.40169 2.25737 7.785 2.58701C8.1683 2.91665 8.41866 3.37442 8.48941 3.875C8.62131 4.87507 8.86592 5.85701 9.21858 6.80208C9.35873 7.17492 9.38906 7.58012 9.30598 7.96967C9.2229 8.35921 9.02989 8.71678 8.74983 9L7.42691 10.3229C8.90978 12.9308 11.0691 15.09 13.6769 16.5729L14.9998 15.25C15.283 14.9699 15.6406 14.7769 16.0302 14.6938C16.4197 14.6108 16.8249 14.6411 17.1977 14.7812C18.1428 15.1339 19.1248 15.3785 20.1248 15.5104C20.6308 15.5818 21.093 15.8367 21.4233 16.2266C21.7536 16.6164 21.9292 17.1141 21.9165 17.625Z" stroke="#F3F3F3" stroke-width="2" stroke-linecap="round" stroke-linejoin="round"/>
</svg>
