<svg width="19" height="20" viewBox="0 0 19 20" fill="none" xmlns="http://www.w3.org/2000/svg">
<path d="M12.1658 10.4062C14.1371 11.0128 15.8685 12.2756 17.1006 14.0052C18.3327 15.7348 18.9991 17.8381 19 20H0C0.000421272 17.838 0.666668 15.7344 1.89883 14.0047C3.13099 12.275 4.86266 11.0124 6.83415 10.4062L9.5 14.6154L12.1658 10.4062ZM14.25 5C14.25 6.32608 13.7496 7.59785 12.8588 8.53553C11.968 9.47322 10.7598 10 9.5 10C8.24022 10 7.03204 9.47322 6.14124 8.53553C5.25044 7.59785 4.75 6.32608 4.75 5C4.75 3.67392 5.25044 2.40215 6.14124 1.46447C7.03204 0.526784 8.24022 0 9.5 0C10.7598 0 11.968 0.526784 12.8588 1.46447C13.7496 2.40215 14.25 3.67392 14.25 5Z" fill="#1F5ADD"/>
</svg>
