<svg width="22" height="22" viewBox="0 0 22 22" fill="none" xmlns="http://www.w3.org/2000/svg">
<g clip-path="url(#clip0_134_926)">
<path d="M18.1725 6.11063L18.1725 6.11389L18.1693 6.11389L17.918 6.36509L17.8495 6.43031C17.8202 6.45317 17.7908 6.47603 17.7615 6.49554C17.7321 6.51513 17.7027 6.53146 17.6734 6.5477C17.6146 6.5771 17.5527 6.60322 17.4907 6.61955C17.3047 6.67498 17.1024 6.67498 16.9132 6.61955C16.8512 6.60322 16.7892 6.5771 16.7305 6.5477C16.7012 6.53146 16.6718 6.51513 16.6457 6.49554C16.5902 6.45962 16.5347 6.41399 16.4858 6.36509L15.7746 5.65391L15.7713 5.65391L15.631 5.51031C15.2363 5.11882 15.2363 4.47287 15.631 4.07812L16.9034 2.80577C16.9328 2.81222 16.9654 2.81548 16.998 2.81875L16.998 2.82201C16.8415 3.30812 16.7534 3.79096 16.7436 4.2347C16.6979 4.25429 16.649 4.27706 16.6065 4.30645C16.5609 4.33585 16.5217 4.36842 16.4826 4.4076L16.4826 4.41087C16.2803 4.61312 16.2118 4.89371 16.2771 5.14821C16.3064 5.2852 16.3782 5.41243 16.4826 5.51684C16.5772 5.61146 16.6914 5.67669 16.8121 5.71261C16.923 5.74844 17.0437 5.75497 17.1579 5.73547L17.1612 5.73547L17.1612 5.73865L17.1645 5.73865C17.1938 5.7713 17.2232 5.80396 17.2558 5.83326C17.2884 5.86265 17.3211 5.88869 17.357 5.91482C17.3928 5.94094 17.4287 5.96707 17.4679 5.98666C17.5038 6.00944 17.5461 6.02903 17.5853 6.04536C17.6179 6.05833 17.6506 6.0714 17.6865 6.08119C17.7517 6.10079 17.8235 6.11385 17.892 6.12038C17.9279 6.12038 17.9638 6.12365 17.9997 6.12365C18.0583 6.12369 18.1138 6.12042 18.1725 6.11063Z" fill="#F8F1C3"/>
<path d="M15.1177 6.02512L15.9736 6.88106C16.3674 7.27487 17.0118 7.27487 17.4057 6.88106L18.1743 6.11239L17.919 6.36767C17.5252 6.76148 16.8808 6.76148 16.487 6.36767L15.631 5.51173C15.2372 5.11792 15.2372 4.47352 15.631 4.07971L15.1177 4.59306C14.7238 4.98687 14.7238 5.63131 15.1177 6.02512Z" fill="#F8F1C3"/>
<path d="M20.4498 3.73227C20.1855 4.38801 19.8266 4.94918 19.4286 5.36022C19.3731 5.42218 19.3144 5.48088 19.2557 5.53313C19.2524 5.53639 19.2524 5.53639 19.2492 5.53966C19.2296 5.38635 19.21 5.23952 19.1904 5.09592L19.1904 5.09266C19.1774 4.98833 19.1643 4.89045 19.1513 4.78925C19.1546 4.78599 19.1546 4.78599 19.1546 4.78272L19.1578 4.77946C19.2068 4.72076 19.2557 4.6588 19.3047 4.59022C19.3536 4.525 19.4025 4.45324 19.4515 4.37821C19.4841 4.32605 19.5167 4.27389 19.5526 4.21511C19.5787 4.16947 19.6081 4.12049 19.6374 4.06832C19.6374 4.06179 19.644 4.05526 19.6472 4.04547C19.7353 3.88236 19.8201 3.70296 19.8984 3.51046C20.2704 2.59368 20.3356 1.76172 20.2018 1.22345C20.1236 0.916781 19.98 0.704688 19.7908 0.629664C19.7353 0.606805 19.6701 0.593742 19.6015 0.593742C19.0795 0.593742 18.2378 1.30174 17.7028 2.61327C17.6636 2.71116 17.6277 2.80577 17.5951 2.90035C17.5005 2.89055 17.4059 2.87749 17.3047 2.86125C17.2068 2.84818 17.1025 2.83186 16.998 2.81879C17.0437 2.67528 17.0959 2.53172 17.1514 2.39147C17.7256 0.982008 18.7337 3.75104e-08 19.6015 5.62661e-08C19.67 5.77464e-08 19.7386 0.00653131 19.8006 0.0162422C19.8756 0.0293047 19.9474 0.0488985 20.0159 0.0782891C20.303 0.195766 20.5248 0.43059 20.6684 0.756852C20.6977 0.822164 20.7206 0.887391 20.7434 0.959149C20.7956 1.12552 20.8315 1.3148 20.8478 1.51701C20.9033 2.1826 20.763 2.96888 20.4498 3.73227Z" fill="#816D5E"/>
<path d="M17.6765 5.41239C17.6505 5.44831 17.6243 5.48423 17.5885 5.5168C17.471 5.63428 17.3275 5.70604 17.1774 5.73543C17.1742 5.73543 17.1676 5.73861 17.1644 5.73861L17.1611 5.73861L17.1578 5.73543C17.1513 5.7289 17.148 5.72236 17.1448 5.71583C17.0958 5.65705 17.0534 5.59509 17.0143 5.52333C16.9915 5.48741 16.9719 5.44504 16.9523 5.40586C16.9327 5.36349 16.9131 5.32112 16.8968 5.2754C16.8805 5.22977 16.8642 5.18405 16.8511 5.13515C16.8381 5.08952 16.825 5.04054 16.8119 4.98837C16.8021 4.93612 16.7923 4.88396 16.7826 4.83179C16.7728 4.77628 16.7663 4.72085 16.7597 4.66533C16.7565 4.64583 16.7565 4.62623 16.7532 4.60664C16.7434 4.48598 16.7402 4.36193 16.7434 4.23474C16.838 4.19882 16.9359 4.17931 17.0338 4.17931C17.0631 4.17931 17.0958 4.18249 17.1251 4.18584C17.1578 4.18902 17.1871 4.19556 17.2197 4.20535C17.2361 4.20535 17.2491 4.20862 17.2622 4.21515C17.2882 4.22168 17.3111 4.23148 17.3372 4.24127C17.3372 4.34895 17.3372 4.45655 17.347 4.55774C17.3797 4.95894 17.4971 5.25908 17.6765 5.41239Z" fill="#705F51"/>
<path d="M19.1904 5.0927L19.1904 5.09597L18.1758 6.11063L18.1758 6.1139L18.1693 6.1139C18.1138 6.12043 18.0551 6.12696 17.9996 6.12696C17.9637 6.12696 17.9279 6.12369 17.892 6.12043C17.8235 6.1139 17.7517 6.10083 17.6864 6.08124C17.6505 6.07144 17.6179 6.05838 17.5853 6.0454C17.5461 6.02908 17.5037 6.00948 17.4678 5.98671C17.4287 5.96712 17.3928 5.94099 17.3569 5.91487C17.321 5.88874 17.2884 5.8627 17.2557 5.83331C17.2199 5.80401 17.1905 5.77135 17.1611 5.73869L17.1644 5.73869C17.1677 5.73869 17.1742 5.73551 17.1775 5.73551C17.3275 5.70612 17.4711 5.63437 17.5885 5.51689C17.6244 5.48432 17.6505 5.4484 17.6766 5.41248C17.8919 5.10581 17.8626 4.68175 17.5885 4.41096C17.5167 4.33594 17.4287 4.27716 17.3373 4.24132C17.3373 4.18907 17.3406 4.13691 17.3438 4.08148C17.37 3.7095 17.4548 3.30825 17.5951 2.90044C17.9181 2.94616 18.1986 2.98526 18.414 3.01138C18.7304 3.05701 18.9164 3.08314 18.9164 3.08314C18.9164 3.08314 19.0143 3.78778 19.1513 4.78943C19.1643 4.89045 19.1774 4.98833 19.1904 5.0927Z" fill="#ECE5BB"/>
<path d="M17.3375 4.2405C17.347 3.82508 17.4356 3.36535 17.5955 2.90142C17.4091 2.87615 17.208 2.84908 16.9956 2.82085C16.839 3.30717 16.7528 3.791 16.7432 4.23577C16.9337 4.15955 17.148 4.16118 17.3375 4.2405Z" fill="#705F51"/>
<path d="M19.7609 11.5536L9.82342 21.4911C9.34712 21.9674 8.65871 22.1109 8.05517 21.9151C7.80067 21.8336 7.55927 21.6933 7.35702 21.4911L0.50578 14.6398C0.306792 14.4375 0.166499 14.1994 0.0849444 13.9449C-0.110821 13.3446 0.0327374 12.653 0.50578 12.1767L10.4433 2.23915C10.6619 2.02052 14.4659 2.48712 16.903 2.80681L15.6306 4.07915L15.1184 4.59465C14.7237 4.98614 14.7237 5.63209 15.1184 6.02358L15.9732 6.88166C16.368 7.27642 17.0107 7.27642 17.4054 6.88166L18.1753 6.11166L19.19 5.09708C19.2096 5.2406 19.2291 5.38742 19.2487 5.54074C19.5652 7.968 19.9665 11.348 19.7609 11.5536Z" fill="#C24443"/>
<path d="M8.42354 15.239C8.37459 15.0988 8.29304 14.9683 8.17234 14.8476C8.05817 14.7333 7.94396 14.6485 7.82653 14.5898C7.70583 14.5343 7.58182 14.5082 7.45459 14.5148C7.34695 14.5148 7.24254 14.5376 7.13813 14.58C7.03371 14.6257 6.91628 14.6974 6.78578 14.7953L6.44324 15.0465C6.38776 15.089 6.33556 15.1183 6.28666 15.1379C6.28339 15.1411 6.27686 15.1444 6.27359 15.1444C6.22139 15.164 6.16918 15.177 6.12028 15.177C6.06808 15.177 6.0224 15.1672 5.98325 15.1476C5.94084 15.1281 5.90492 15.102 5.87231 15.0694C5.78749 14.9845 5.74181 14.8801 5.74181 14.7562C5.74181 14.6322 5.80708 14.5049 5.93758 14.3745C6.01913 14.2929 6.11702 14.2179 6.22796 14.146C6.33886 14.0743 6.46936 14.0385 6.61945 14.0352L6.62272 13.4251C6.41067 13.4283 6.21817 13.4708 6.04852 13.5555C5.87562 13.6371 5.70271 13.7644 5.52981 13.9373C5.39604 14.0743 5.29163 14.2146 5.22314 14.3582C5.1546 14.5017 5.11546 14.6453 5.1057 14.7855C5.09917 14.9258 5.11877 15.0628 5.17093 15.1933C5.22314 15.3271 5.30796 15.4479 5.4189 15.5588C5.50046 15.6403 5.58528 15.7056 5.67014 15.7545C5.8039 15.8361 5.9442 15.8719 6.08449 15.8687C6.19539 15.8687 6.30634 15.8458 6.41724 15.8002C6.52492 15.7577 6.64562 15.6892 6.77285 15.5946L7.1154 15.3435C7.18715 15.2879 7.24589 15.2521 7.2883 15.2325C7.33071 15.2162 7.37312 15.2064 7.42206 15.2032C7.52648 15.2032 7.62105 15.2456 7.70592 15.3304C7.80706 15.4315 7.84621 15.5457 7.82661 15.673C7.80376 15.8034 7.71893 15.9405 7.57538 16.0873C7.46121 16.2015 7.33724 16.2928 7.20348 16.3646C7.06972 16.4396 6.92616 16.4756 6.76632 16.4756L6.76632 17.1019C7.01102 17.1052 7.23283 17.0563 7.42859 16.9551C7.62105 16.8572 7.81355 16.7104 8.00279 16.5245C8.13328 16.394 8.2377 16.2537 8.31925 16.1068C8.39754 15.9601 8.44648 15.8132 8.46607 15.6665C8.48223 15.5195 8.46921 15.376 8.42354 15.239Z" fill="#FDFEFE"/>
<path d="M9.1968 12.2278L7.88853 11.6209L7.50684 12.0027L8.11691 13.3077L9.08912 15.3957L9.59482 14.89L9.3077 14.2995L10.1886 13.4153L10.7758 13.709L11.2848 13.2L9.1968 12.2278ZM9.03369 13.7546L8.58999 12.8346L8.44317 12.5344L8.7433 12.6812L9.65355 13.1347L9.03369 13.7546Z" fill="#FDFEFE"/>
<path d="M12.7728 10.8478L11.644 11.9766L9.58864 9.92119L9.10254 10.4073L10.0617 11.3633L11.5918 12.8933L13.2034 11.2817L12.7728 10.8478Z" fill="#FDFEFE"/>
<path d="M14.8054 8.81521L13.6505 9.96682L13.0469 9.36332L14.0289 8.38131L13.595 7.94737L12.613 8.92938L12.5543 8.87068L12.0323 8.34548L13.184 7.19374L12.7501 6.75989L11.1123 8.39764L12.0682 9.35679L13.5983 10.8869L15.2361 9.24584L14.8054 8.81521Z" fill="#FDFEFE"/>
<path opacity="0.06" d="M18.1821 6.10083L18.1756 6.11063L19.1902 5.09597L18.1821 6.10083ZM18.1723 6.11063L18.1723 6.1139L18.1756 6.1139L18.1756 6.11063L18.1723 6.11063ZM18.1691 6.1139L17.9178 6.36509L17.9178 6.36836L18.1723 6.11385L18.1691 6.11385L18.1691 6.1139ZM18.1691 6.1139L17.9178 6.36509L17.9178 6.36836L18.1723 6.11385L18.1691 6.11385L18.1691 6.1139ZM20.8541 1.50722C20.8378 1.30496 20.8019 1.11573 20.7497 0.949355C20.7268 0.877597 20.6975 0.818901 20.6714 0.753632L20.2016 1.22341C20.3353 1.76168 20.2701 2.59364 19.8982 3.51042C19.8199 3.70292 19.7351 3.88232 19.647 4.04542C19.6437 4.05522 19.6372 4.06175 19.6372 4.06828C19.6078 4.12045 19.5784 4.16943 19.5523 4.21507C19.5165 4.27385 19.4838 4.32601 19.4512 4.37817C19.4023 4.4532 19.3533 4.52169 19.3044 4.59018C19.2816 4.62284 19.2554 4.65549 19.2294 4.68806C19.2065 4.71746 19.1837 4.75011 19.1575 4.77942C19.1641 4.81534 19.1673 4.85117 19.1706 4.89036C19.1641 4.85444 19.1576 4.8186 19.1543 4.78268C19.1543 4.78595 19.1543 4.78595 19.1511 4.78921C19.014 3.78761 18.9162 3.08292 18.9162 3.08292C18.9162 3.08292 18.7302 3.0568 18.4137 3.01117L16.7596 4.66521C16.7662 4.72072 16.7727 4.77615 16.7825 4.83167C16.7923 4.88383 16.8021 4.93599 16.8118 4.98824C16.8249 5.04041 16.838 5.08939 16.851 5.13503C16.8641 5.18392 16.8804 5.22964 16.8967 5.27528C16.913 5.32099 16.9326 5.36336 16.9522 5.40573C16.9718 5.44492 16.9913 5.48728 17.0142 5.52321C17.0533 5.59496 17.0957 5.65692 17.1447 5.71571C17.1479 5.72224 17.1512 5.72877 17.1577 5.7353C17.0435 5.75481 16.9228 5.74828 16.8119 5.71244C16.6912 5.67652 16.577 5.61129 16.4824 5.51667C16.378 5.41226 16.3062 5.28503 16.2769 5.14805L15.7744 5.65374L15.7712 5.65374L15.259 6.16589L12.5543 8.87051L12.0682 9.35662L10.5479 10.8802L10.0618 11.3631L9.19722 12.2276L8.74373 12.6811L8.59042 12.8344L8.11737 13.3075L6.28712 15.1379L5.67052 15.7545L3.6543 17.7707L7.36375 21.4801C7.566 21.6824 7.80744 21.8227 8.0619 21.9043C8.66544 22.1 9.35384 21.9564 9.83015 21.4801L19.7611 11.5524L19.7677 11.5426C19.7742 11.5361 19.784 11.5198 19.7873 11.5035C19.7905 11.4904 19.7938 11.4774 19.7971 11.4611C19.8003 11.4415 19.8036 11.4187 19.8069 11.3958C19.8949 10.6879 19.5393 7.71899 19.2555 5.53317L19.2555 5.52991C19.2848 5.50378 19.3142 5.47774 19.3436 5.44835C19.373 5.42223 19.399 5.38966 19.4284 5.36027C19.8264 4.94919 20.1853 4.38806 20.4495 3.73231C20.4528 3.72905 20.4561 3.72578 20.4561 3.72251C20.7693 2.959 20.9096 2.1728 20.8541 1.50722ZM17.5883 4.41087C17.8624 4.68171 17.8918 5.10576 17.6764 5.41239C17.497 5.25908 17.3795 4.95894 17.3469 4.55765C17.3371 4.45651 17.3371 4.34887 17.3371 4.24119C17.4285 4.27707 17.5166 4.33585 17.5883 4.41087ZM17.882 6.40424L17.4122 6.87083L17.8428 6.43689L17.8493 6.43036L17.9178 6.36514L17.9243 6.35534L18.1691 6.1139L17.9178 6.36514L17.9178 6.3684L17.882 6.40424ZM18.1691 6.1139L17.9178 6.36509L17.9178 6.36836L18.1723 6.11385L18.1691 6.11385L18.1691 6.1139ZM18.1723 6.11063L18.1723 6.1139L18.1756 6.1139L18.1756 6.11063L18.1723 6.11063Z" fill="#040000"/>
</g>
<defs>
<clipPath id="clip0_134_926">
<rect width="22" height="22" fill="white"/>
</clipPath>
</defs>
</svg>
