<svg width="28" height="28" viewBox="0 0 28 28" fill="none" xmlns="http://www.w3.org/2000/svg">
<g clip-path="url(#clip0_134_947)">
<path d="M28 14.0437L24.325 11.0783L26.6875 6.9789L21.7 6.54315L21.2625 1.74553L17.0625 3.7519L14.175 0.000778198L11.4625 3.83853L7.0875 1.57053L6.825 6.54228L1.925 6.8039L3.7625 11.514L0 13.782L3.85 16.6608L1.925 20.7602L6.7375 21.2834L7 26.1685L11.4625 24.0747L14.4375 27.9999L17.0625 24.0747L21.175 26.081L21.525 21.1959L26.3375 21.1084L24.5875 17.0957L28 14.0437Z" fill="#E04F5F"/>
<path d="M8.00282 16.5843C8.35545 16.6333 8.8717 16.6254 9.34682 16.4583C9.85957 16.2789 10.0564 15.9718 9.94357 15.6498C9.83595 15.3418 9.5402 15.2482 8.87257 15.2438C7.95295 15.2447 7.25907 14.9778 7.00795 14.2603C6.71307 13.4177 7.18995 12.5287 8.35457 12.1209C8.91107 11.9258 9.3617 11.9004 9.7012 11.9293L9.7677 12.9172C9.53582 12.8918 9.13595 12.8743 8.65295 13.0441C8.16995 13.2138 8.01332 13.5157 8.10257 13.7712C8.21195 14.0862 8.54007 14.1273 9.26107 14.1474C10.2446 14.1641 10.8133 14.4747 11.0574 15.1703C11.3462 15.9972 10.9551 16.9238 9.60145 17.3981C9.03707 17.5958 8.42982 17.6422 8.09732 17.5871L8.00282 16.5843Z" fill="white"/>
<path d="M14.3785 15.6428L14.1877 15.3068L14.1658 15.3147C14.032 15.6822 13.7196 15.9648 13.2952 16.1127C12.5698 16.3664 11.953 15.9902 11.7526 15.4197C11.428 14.4896 12.1061 13.7502 13.3757 13.3153L13.3573 13.2628C13.2908 13.0729 13.0931 12.8384 12.5436 13.0301C12.177 13.1578 11.8331 13.4177 11.6502 13.6469L11.1943 13.0012C11.3947 12.7746 11.8243 12.4281 12.4753 12.1997C13.6697 11.7814 14.2962 12.3511 14.5911 13.1937L15.0268 14.4388C15.1467 14.7827 15.2762 15.1073 15.3821 15.2919L14.3785 15.6428ZM13.6557 13.9978C13.0677 14.1956 12.6617 14.4922 12.8131 14.9253C12.9128 15.2106 13.1526 15.2841 13.402 15.1974C13.6793 15.1003 13.843 14.8378 13.836 14.5849C13.8307 14.5211 13.815 14.4528 13.7913 14.3863L13.6557 13.9978Z" fill="white"/>
<path d="M14.3916 9.80394L15.5037 9.41457L17.3229 14.6121L16.2107 15.0014L14.3916 9.80394Z" fill="white"/>
<path d="M18.5796 12.5619C18.7774 13.0117 19.3085 13.0712 19.8282 12.8892C20.2097 12.7562 20.4985 12.5969 20.7645 12.3966L21.1757 13.1001C20.8607 13.3748 20.4399 13.6049 19.956 13.7747C18.7406 14.1991 17.7991 13.7397 17.408 12.6197C17.0904 11.7123 17.3021 10.5118 18.5472 10.0769C19.7031 9.67182 20.4591 10.4191 20.7689 11.3037C20.8354 11.4944 20.8721 11.6703 20.8861 11.7569L18.5796 12.5619ZM19.6226 11.3431C19.529 11.0709 19.2525 10.6588 18.7389 10.8382C18.2707 11.0027 18.2287 11.4936 18.3049 11.8042L19.6226 11.3431Z" fill="white"/>
</g>
<defs>
<clipPath id="clip0_134_947">
<rect width="28" height="28" fill="white"/>
</clipPath>
</defs>
</svg>
