<svg width="27" height="27" viewBox="0 0 27 27" fill="none" xmlns="http://www.w3.org/2000/svg">
<path d="M24.5833 26.625L15.3958 17.4375C14.6667 18.0208 13.8281 18.4826 12.8802 18.8229C11.9323 19.1632 10.9236 19.3333 9.85417 19.3333C7.20486 19.3333 4.96267 18.4158 3.1276 16.5807C1.29253 14.7457 0.375 12.5035 0.375 9.85417C0.375 7.20486 1.29253 4.96267 3.1276 3.1276C4.96267 1.29253 7.20486 0.375 9.85417 0.375C12.5035 0.375 14.7457 1.29253 16.5807 3.1276C18.4158 4.96267 19.3333 7.20486 19.3333 9.85417C19.3333 10.9236 19.1632 11.9323 18.8229 12.8802C18.4826 13.8281 18.0208 14.6667 17.4375 15.3958L26.625 24.5833L24.5833 26.625ZM9.85417 16.4167C11.6771 16.4167 13.2266 15.7786 14.5026 14.5026C15.7786 13.2266 16.4167 11.6771 16.4167 9.85417C16.4167 8.03125 15.7786 6.48177 14.5026 5.20573C13.2266 3.92969 11.6771 3.29167 9.85417 3.29167C8.03125 3.29167 6.48177 3.92969 5.20573 5.20573C3.92969 6.48177 3.29167 8.03125 3.29167 9.85417C3.29167 11.6771 3.92969 13.2266 5.20573 14.5026C6.48177 15.7786 8.03125 16.4167 9.85417 16.4167Z" fill="#007AFF"/>
</svg>
