<svg width="39" height="30" viewBox="0 0 39 30" fill="none" xmlns="http://www.w3.org/2000/svg">
<path d="M35.7448 0.918946H2.83234C2.52356 0.918771 2.21778 0.979459 1.93248 1.09754C1.64718 1.21562 1.38795 1.38878 1.16962 1.60712C0.95128 1.82545 0.778121 2.08468 0.66004 2.36998C0.541959 2.65528 0.481271 2.96106 0.481446 3.26984V26.7787C0.481271 27.0875 0.541959 27.3933 0.66004 27.6786C0.778121 27.9639 0.95128 28.2231 1.16962 28.4415C1.38795 28.6598 1.64718 28.833 1.93248 28.951C2.21778 29.0691 2.52356 29.1298 2.83234 29.1296H35.7448C36.0536 29.1298 36.3594 29.0691 36.6447 28.951C36.93 28.833 37.1892 28.6598 37.4075 28.4415C37.6259 28.2231 37.799 27.9639 37.9171 27.6786C38.0352 27.3933 38.0959 27.0875 38.0957 26.7787V3.26984C38.0959 2.96106 38.0352 2.65528 37.9171 2.36998C37.799 2.08468 37.6259 1.82545 37.4075 1.60712C37.1892 1.38878 36.93 1.21562 36.6447 1.09754C36.3594 0.979459 36.0536 0.918771 35.7448 0.918946ZM9.88501 24.4279C9.88378 23.1812 9.38801 21.986 8.50653 21.1046C7.62504 20.2231 6.42984 19.7273 5.18323 19.7261V10.3225C6.42984 10.3213 7.62504 9.82551 8.50653 8.94403C9.38801 8.06254 9.88378 6.86734 9.88501 5.62073H28.6921C28.6934 6.86734 29.1891 8.06254 30.0706 8.94403C30.9521 9.82551 32.1473 10.3213 33.3939 10.3225V19.7261C32.1473 19.7273 30.9521 20.2231 30.0706 21.1046C29.1891 21.986 28.6934 23.1812 28.6921 24.4279H9.88501Z" fill="#1250DC"/>
<path d="M19.2877 10.3223C18.3578 10.3223 17.4488 10.598 16.6756 11.1147C15.9023 11.6313 15.2997 12.3656 14.9438 13.2248C14.588 14.0839 14.4949 15.0293 14.6763 15.9413C14.8577 16.8534 15.3055 17.6912 15.9631 18.3487C16.6206 19.0063 17.4584 19.4541 18.3704 19.6355C19.2825 19.8169 20.2279 19.7238 21.087 19.3679C21.9462 19.0121 22.6805 18.4094 23.1971 17.6362C23.7137 16.863 23.9895 15.954 23.9895 15.024C23.9883 13.7774 23.4925 12.5822 22.611 11.7007C21.7295 10.8193 20.5343 10.3235 19.2877 10.3223Z" fill="#1250DC"/>
</svg>
